<?xml version="1.0" encoding="UTF-8" standalone="no"?>
<!-- Creator: CorelDRAW X8 -->

<svg
   xml:space="preserve"
   width="7.3619099in"
   height="1.317606in"
   version="1.1"
   style="clip-rule:evenodd;fill-rule:evenodd;image-rendering:optimizeQuality;shape-rendering:geometricPrecision;text-rendering:geometricPrecision"
   viewBox="0 0 7323.7861 1311"
   id="svg8"
   sodipodi:docname="meet-whizbang-dark.svg"
   inkscape:version="1.4.2 (ebf0e940d0, 2025-05-08)"
   xmlns:inkscape="http://www.inkscape.org/namespaces/inkscape"
   xmlns:sodipodi="http://sodipodi.sourceforge.net/DTD/sodipodi-0.dtd"
   xmlns:xlink="http://www.w3.org/1999/xlink"
   xmlns="http://www.w3.org/2000/svg"
   xmlns:svg="http://www.w3.org/2000/svg"><sodipodi:namedview
   id="namedview8"
   pagecolor="#ffffff"
   bordercolor="#000000"
   borderopacity="0.25"
   inkscape:showpageshadow="2"
   inkscape:pageopacity="0.0"
   inkscape:pagecheckerboard="0"
   inkscape:deskcolor="#d1d1d1"
   inkscape:document-units="in"
   inkscape:zoom="1.5165652"
   inkscape:cx="353.43024"
   inkscape:cy="-22.08939"
   inkscape:window-width="1536"
   inkscape:window-height="798"
   inkscape:window-x="0"
   inkscape:window-y="0"
   inkscape:window-maximized="1"
   inkscape:current-layer="Layer_x0020_1" />
 <defs
   id="defs5">
  <style
   type="text/css"
   id="style1">
   <![CDATA[
    .fil0 {fill:#96989A;fill-rule:nonzero}
    .fil1 {fill:url(#id0)}
    .fil2 {fill:url(#id1);fill-rule:nonzero}
   ]]>
  </style>
  <linearGradient
   id="id0"
   gradientUnits="userSpaceOnUse"
   x1="0.0117504"
   y1="1842.8199"
   x2="3070.6899"
   y2="2718.2">
   <stop
   offset="0"
   style="stop-opacity:1; stop-color:#18D3ED"
   id="stop1" />
   <stop
   offset="0.219608"
   style="stop-opacity:1; stop-color:#4C5DBE"
   id="stop2" />
   <stop
   offset="0.501961"
   style="stop-opacity:1; stop-color:#FB32A2"
   id="stop3" />
   <stop
   offset="0.760784"
   style="stop-opacity:1; stop-color:#FB6D19"
   id="stop4" />
   <stop
   offset="1"
   style="stop-opacity:1; stop-color:#F8AF12"
   id="stop5" />
  </linearGradient>
  <linearGradient
   id="id1"
   gradientUnits="userSpaceOnUse"
   xlink:href="#id0"
   x1="2433.8501"
   y1="173.819"
   x2="4105.5698"
   y2="1154.63">
  </linearGradient>
 <linearGradient
   inkscape:collect="always"
   xlink:href="#id0"
   id="linearGradient8"
   gradientUnits="userSpaceOnUse"
   x1="0.0117504"
   y1="1842.8199"
   x2="3070.6899"
   y2="2718.2" /></defs>
 <g
   id="Layer_x0020_1"
   inkscape:label="Layer 1"
   inkscape:groupmode="layer"
   transform="translate(-0.60698876,-1779)">
  <metadata
   id="CorelCorpID_0Corel-Layer" />
  <path
   class="fil0"
   d="m 4869,2142 c 27,-22 57,-41 92,-56 47,-19 99,-29 157,-29 46,0 88,8 125,23 37,15 69,33 95,54 l 8,-54 h 179 v 703 h -179 l -9,-53 c -26,20 -58,38 -95,53 -37,15 -78,22 -124,22 -58,0 -110,-9 -156,-29 -47,-20 -86,-46 -119,-80 -33,-34 -58,-73 -76,-119 -3,-7 -2,-3 -4,-11 l 191,-180 c -2,14 -4,29 -4,45 0,29 5,56 15,80 10,24 24,45 40,62 17,17 37,30 60,40 23,9 47,13 73,13 26,0 50,-4 73,-13 23,-10 43,-23 60,-40 17,-17 30,-37 40,-62 9,-24 14,-51 14,-80 0,-29 -5,-55 -15,-79 -9,-24 -23,-44 -40,-61 -17,-17 -37,-30 -60,-40 -22,-9 -47,-14 -73,-14 -26,0 -50,5 -73,14 -34,14 -70,38 -105,67 -159,128 -289,296 -458,412 -27,19 -55,35 -83,47 -47,20 -99,30 -156,30 -23,0 -45,-2 -66,-6 -21,-4 -40,-10 -59,-17 -19,-7 -36,-16 -52,-25 -16,-10 -30,-20 -43,-30 l -10,54 h -178 v -956 h 210 v 292 c 25,-18 54,-33 87,-45 34,-12 72,-18 114,-18 58,0 110,10 156,30 46,20 85,47 118,81 32,34 56,74 73,119 3,7 4,8 6,15 l -191,162 c 2,-13 2,-17 2,-32 0,-29 -5,-55 -15,-79 -10,-24 -23,-44 -40,-61 -16,-17 -36,-30 -59,-40 -23,-9 -47,-14 -73,-14 -26,0 -51,5 -73,14 -23,10 -43,23 -60,40 -17,17 -30,37 -40,61 -10,24 -16,50 -16,79 0,29 5,56 15,80 10,25 23,45 40,62 17,17 37,30 59,40 23,9 47,13 74,13 26,0 52,0 73,-13 117,-78 225,-189 316,-267 l 238,-205 z m 812,551 c 0,-14 3,-29 8,-42 6,-13 13,-25 23,-35 10,-10 22,-18 37,-24 14,-5 29,-8 47,-8 17,0 33,3 47,8 14,6 26,14 36,24 11,10 19,22 24,35 5,13 8,28 8,42 0,15 -3,30 -8,43 -5,13 -13,25 -24,35 -10,10 -22,18 -36,23 -14,6 -30,9 -47,9 -18,0 -33,-3 -47,-9 -15,-6 -27,-14 -37,-23 -10,-10 -17,-22 -23,-35 -5,-13 -8,-28 -8,-43 z m 860,-261 c 0,-52 9,-101 26,-146 18,-46 43,-85 76,-119 32,-34 72,-61 118,-81 47,-19 99,-29 157,-29 24,0 47,2 69,7 22,4 42,10 60,17 19,8 37,16 52,26 16,10 31,20 44,31 l 13,-58 h 169 v 649 c 0,53 -8,102 -25,146 -17,44 -42,82 -74,114 -32,32 -72,56 -119,74 -47,18 -100,27 -160,27 -43,0 -81,-4 -115,-12 -34,-8 -64,-18 -90,-31 -26,-13 -49,-29 -68,-47 -18,-18 -34,-37 -46,-57 -13,-21 -22,-42 -29,-64 -7,-22 -11,-44 -12,-66 h 200 c 4,14 11,28 19,40 8,13 19,23 32,33 13,9 28,16 46,22 18,5 38,8 62,8 35,0 64,-6 87,-18 22,-12 39,-27 52,-45 13,-18 22,-37 27,-57 5,-20 7,-38 7,-54 v -24 c -27,21 -59,39 -96,53 -37,15 -79,22 -125,22 -53,0 -101,-9 -145,-27 -43,-19 -81,-44 -113,-76 -31,-33 -55,-71 -73,-115 -17,-44 -26,-92 -26,-143 z m 210,-1 c 0,29 4,56 14,80 10,24 24,44 41,62 17,17 37,30 60,39 22,10 47,14 73,14 25,0 50,-4 72,-14 23,-9 43,-22 60,-39 16,-17 30,-38 39,-62 10,-24 15,-51 15,-80 0,-29 -5,-56 -15,-79 -9,-24 -23,-44 -40,-61 -17,-17 -36,-30 -59,-40 -23,-9 -47,-14 -73,-14 -27,0 -51,5 -74,14 -23,10 -42,23 -59,40 -17,17 -30,37 -40,61 -10,23 -14,50 -14,79 z m -327,352 h -210 v -373 c 0,-32 -4,-60 -11,-82 -6,-22 -16,-40 -28,-53 -12,-13 -27,-23 -44,-29 -17,-6 -35,-9 -56,-9 -26,0 -49,5 -70,15 -21,10 -38,23 -53,40 -15,17 -26,37 -33,61 -8,23 -12,49 -12,76 v 120 c -12,-8 -24,-15 -37,-21 -24,-10 -49,-14 -74,-14 -25,0 -50,4 -73,14 -9,3 -18,8 -26,12 v -460 h 169 l 13,53 c 14,-10 31,-20 48,-29 18,-10 36,-18 56,-24 19,-7 39,-13 60,-17 20,-4 42,-6 63,-6 56,0 104,8 144,24 40,16 74,39 99,69 26,30 45,67 57,110 12,43 18,92 18,146 z"
   id="path5" />
  <path
   class="fil1"
   d="m 0,1843 c 69,236 124,494 193,730 80,274 364,302 476,19 47,-120 94,-239 140,-358 43,-108 69,-129 123,-15 87,184 143,650 433,580 180,-44 203,-203 241,-355 33,-129 65,-258 100,-387 -64,0 -172,4 -237,4 -38,140 -58,279 -97,418 -36,133 -79,117 -127,1 -55,-134 -90,-278 -145,-411 -87,-210 -346,-226 -439,-6 -53,125 -89,259 -142,384 -67,158 -117,129 -151,-24 -45,-198 -71,-388 -116,-586 -78,5 -174,1 -252,6 z m 2564,940 h -211 v -375 c 0,-33 -4,-61 -11,-83 -7,-22 -17,-40 -29,-53 -13,-13 -29,-22 -47,-27 -19,-5 -39,-8 -62,-8 -23,0 -45,5 -64,13 -20,9 -36,21 -50,37 -14,15 -25,34 -32,55 -8,21 -12,45 -12,71 v 371 h -209 v -957 h 208 l -2,298 c 27,-19 58,-35 92,-48 34,-13 71,-20 110,-20 56,0 104,8 145,24 40,16 73,39 98,68 26,30 45,67 57,110 13,43 19,91 19,145 z m 507,-130 337,-394 h -319 v -179 h 616 v 131 l -334,392 h 352 v 180 h -652 z m -347,-573 h 211 v 703 h -211 z m -19,-190 c 0,-15 3,-29 9,-43 6,-13 15,-25 26,-35 11,-10 24,-18 39,-24 16,-6 33,-9 52,-9 19,0 36,3 51,9 16,6 29,14 40,24 11,10 20,22 26,35 6,14 9,28 9,43 0,16 -3,30 -9,43 -6,14 -15,25 -26,35 -11,10 -24,18 -40,24 -15,6 -33,9 -52,9 -18,0 -35,-3 -51,-9 -15,-6 -28,-14 -39,-24 -11,-10 -19,-22 -25,-35 -6,-14 -10,-28 -10,-43 z"
   id="path6"
   style="fill:url(#linearGradient8)" />
  
  
 </g>
</svg>
