<?xml version="1.0" encoding="UTF-8"?>
<!DOCTYPE svg PUBLIC "-//W3C//DTD SVG 1.1//EN" "http://www.w3.org/Graphics/SVG/1.1/DTD/svg11.dtd">
<!-- Creator: CorelDRAW X8 -->
<svg xmlns="http://www.w3.org/2000/svg" xml:space="preserve" width="7.36313in" height="3.10557in" version="1.1" style="shape-rendering:geometricPrecision; text-rendering:geometricPrecision; image-rendering:optimizeQuality; fill-rule:evenodd; clip-rule:evenodd"
viewBox="0 0 7156 3018"
 xmlns:xlink="http://www.w3.org/1999/xlink">
 <defs>
  <style type="text/css">
   <![CDATA[
    .fil1 {fill:#28F89A}
    .fil2 {fill:#28F89A;fill-rule:nonzero}
    .fil0 {fill:#44474C;fill-rule:nonzero}
   ]]>
  </style>
 </defs>
 <g id="Layer_x0020_1">
  <metadata id="CorelCorpID_0Corel-Layer"/>
  <path class="fil0" d="M4756 2093c26,-22 56,-41 90,-55 46,-19 97,-29 153,-29 46,0 87,8 123,23 36,15 67,32 92,52l9 -53 174 0 0 688 -174 0 -10 -53c-25,21 -56,38 -92,53 -36,14 -77,22 -122,22 -56,0 -107,-10 -152,-29 -46,-19 -84,-46 -116,-78 -33,-33 -57,-72 -74,-117 -3,-7 -2,-3 -4,-10l187 -176c-3,14 -4,28 -4,44 0,28 4,54 14,78 10,23 23,43 40,60 16,17 36,30 58,39 22,9 46,14 71,14 25,0 49,-5 71,-14 23,-9 42,-22 59,-38 16,-17 29,-37 39,-61 9,-24 14,-50 14,-78 0,-29 -5,-54 -14,-78 -10,-23 -23,-43 -40,-59 -17,-17 -36,-30 -58,-39 -23,-9 -46,-13 -71,-13 -26,0 -50,4 -72,13 -33,14 -68,37 -103,65 -155,125 -282,290 -447,403 -26,18 -54,34 -82,46 -45,19 -96,29 -152,29 -22,0 -44,-2 -64,-6 -20,-4 -40,-9 -58,-17 -18,-7 -35,-15 -50,-24 -16,-9 -30,-19 -43,-29l-9 53 -174 0 0 -934 205 0 0 285c24,-18 53,-33 85,-44 33,-12 70,-17 111,-17 57,0 108,9 153,29 45,19 83,46 115,79 31,33 55,72 72,116 2,7 3,8 5,15l-187 158c3,-13 2,-17 2,-31 0,-29 -5,-54 -14,-78 -10,-23 -23,-43 -39,-59 -16,-17 -36,-30 -58,-39 -22,-9 -46,-13 -72,-13 -25,0 -49,4 -71,13 -22,9 -42,22 -58,39 -17,16 -30,36 -40,59 -9,24 -14,49 -14,78 0,28 4,54 14,78 9,24 23,44 39,61 17,16 36,29 58,38 22,9 46,14 72,14 25,0 51,-1 71,-14 114,-75 220,-184 309,-260l232 -200 1 1z"/>
  <path class="fil1" d="M0 1800c67,231 122,483 189,713 78,269 356,295 464,19 46,-117 92,-234 138,-350 41,-105 67,-126 120,-14 84,179 139,634 422,566 176,-43 198,-198 236,-346 33,-126 63,-253 98,-378 -63,0 -168,3 -232,3 -37,137 -57,273 -94,409 -36,130 -78,114 -125,0 -54,-130 -87,-271 -141,-401 -85,-206 -338,-221 -429,-6 -52,122 -87,253 -139,375 -65,154 -114,126 -148,-23 -44,-193 -69,-379 -113,-572 -76,4 -170,1 -246,5zm2504 919l-206 0 0 -366c0,-33 -3,-61 -10,-82 -7,-22 -16,-39 -29,-51 -13,-13 -28,-22 -46,-27 -18,-5 -38,-7 -60,-7 -23,0 -44,4 -63,12 -19,9 -35,20 -48,36 -14,15 -24,33 -32,54 -7,20 -11,44 -11,69l0 362 -205 0 0 -934 203 0 -1 291c26,-19 56,-34 90,-47 33,-13 69,-20 107,-20 55,0 102,8 141,24 39,15 72,37 97,66 25,30 44,65 56,107 12,42 17,90 17,143l0 370zm496 -127l329 -386 -312 0 0 -175 602 0 0 129 -326 383 344 0 0 176 -637 0 0 -127zm-339 -561l206 0 0 688 -206 0 0 -688zm-18 -184c0,-15 3,-29 8,-42 6,-14 14,-25 25,-35 11,-10 24,-18 39,-24 15,-5 32,-8 50,-8 19,0 36,3 51,8 15,6 28,14 39,24 10,10 19,21 24,35 6,13 9,27 9,42 0,14 -3,29 -9,42 -5,13 -14,24 -24,34 -11,9 -24,17 -40,23 -15,6 -32,8 -50,8 -18,0 -35,-2 -50,-8 -15,-6 -28,-14 -38,-24 -11,-10 -19,-21 -25,-34 -6,-13 -9,-27 -9,-41z"/>
  <path class="fil0" d="M6276 2719l-206 0 0 -364c0,-32 -4,-59 -10,-80 -7,-22 -16,-40 -28,-52 -12,-14 -26,-23 -43,-29 -16,-5 -34,-8 -54,-8 -26,0 -48,4 -69,14 -20,9 -37,23 -52,39 -14,17 -25,36 -33,59 -7,23 -11,48 -11,75l0 117c-11,-8 -23,-15 -36,-20 -23,-10 -48,-14 -72,-14 -25,0 -49,4 -72,13 -8,4 -17,8 -25,13l0 -451 165 0 13 53c14,-11 30,-20 47,-29 17,-9 35,-17 54,-24 19,-6 39,-12 59,-16 20,-4 41,-6 61,-6 55,0 102,8 142,24 39,16 71,38 96,68 26,29 44,65 56,107 12,42 18,89 18,142l0 369z"/>
  <path class="fil0" d="M6390 2375c0,-50 8,-98 25,-142 18,-44 42,-83 74,-116 32,-33 70,-60 116,-79 45,-19 96,-29 153,-29 23,0 46,2 67,7 21,4 41,10 59,17 19,7 36,16 51,25 15,10 30,20 42,30l13 -57 166 0 0 635c0,52 -9,99 -25,142 -17,43 -41,80 -72,112 -32,31 -70,55 -116,72 -46,17 -98,26 -157,26 -42,0 -79,-4 -112,-11 -33,-8 -63,-18 -88,-31 -26,-12 -48,-28 -66,-45 -18,-18 -34,-36 -46,-56 -12,-20 -21,-41 -28,-63 -6,-21 -10,-43 -11,-64l195 0c4,14 10,27 18,39 8,12 19,23 32,32 12,9 27,16 45,22 17,5 37,7 60,7 35,0 63,-5 85,-17 21,-12 39,-26 51,-44 13,-17 22,-36 26,-56 5,-19 7,-37 7,-53l0 -23c-26,21 -58,38 -94,52 -36,14 -76,22 -122,22 -51,0 -98,-10 -141,-27 -43,-18 -80,-43 -110,-75 -31,-31 -55,-69 -72,-112 -17,-43 -25,-89 -25,-140zm204 0c0,28 5,54 15,78 9,23 23,43 39,60 17,17 36,30 59,39 22,9 46,13 71,13 25,0 49,-4 71,-13 22,-9 42,-22 58,-39 16,-16 29,-36 39,-60 9,-24 14,-50 14,-78 0,-29 -5,-55 -14,-78 -10,-23 -23,-43 -39,-59 -17,-17 -36,-30 -58,-39 -23,-9 -47,-13 -72,-13 -26,0 -50,4 -72,13 -22,9 -41,22 -58,39 -16,16 -29,36 -38,59 -10,23 -15,49 -15,78z"/>
  <path class="fil0" d="M5549 2631c0,-14 3,-28 9,-41 5,-13 12,-25 22,-34 10,-10 21,-18 36,-24 14,-5 29,-8 46,-8 17,0 32,3 46,8 14,6 25,14 35,24 10,9 18,21 23,34 6,13 8,27 8,41 0,15 -2,29 -8,42 -5,13 -13,24 -23,34 -10,9 -21,17 -35,22 -14,6 -29,9 -46,9 -17,0 -32,-3 -46,-9 -15,-5 -26,-13 -36,-23 -10,-9 -17,-20 -22,-33 -6,-13 -9,-27 -9,-42z"/>
  <path class="fil0" d="M4496 1027c0,-17 3,-33 9,-49 6,-15 15,-28 27,-40 11,-11 25,-20 41,-27 17,-7 35,-10 55,-10 20,0 38,3 54,10 16,7 30,16 42,27 12,12 21,25 27,40 6,16 9,32 9,49 0,17 -3,34 -9,49 -6,15 -15,29 -27,40 -12,11 -26,21 -42,27 -16,7 -34,10 -54,10 -20,0 -38,-4 -55,-10 -16,-7 -30,-16 -41,-27 -12,-11 -21,-25 -27,-40 -6,-15 -9,-32 -9,-49zm13 -172l-17 -855 286 0 -17 865c-15,-11 -31,-21 -48,-28 -27,-11 -56,-16 -85,-16 -29,0 -58,5 -85,16 -12,5 -23,11 -34,18z"/>
  <path class="fil2" d="M2377 106c80,274 145,574 225,847 92,319 422,351 551,23 55,-139 109,-278 164,-416 48,-125 80,-149 142,-17 101,213 165,754 502,672 209,-50 236,-235 280,-410 39,-150 75,-301 116,-449 -75,0 -200,4 -275,4 -44,162 -67,323 -112,485 -43,154 -92,135 -148,0 -64,-154 -104,-322 -168,-476 -101,-244 -401,-263 -509,-8 -62,146 -104,301 -165,446 -78,183 -136,150 -176,-28 -52,-229 -82,-450 -134,-679 -90,5 -202,1 -293,6z"/>
 </g>
</svg>
