<?xml version="1.0" encoding="UTF-8"?>
<!DOCTYPE svg PUBLIC "-//W3C//DTD SVG 1.1//EN" "http://www.w3.org/Graphics/SVG/1.1/DTD/svg11.dtd">
<!-- Creator: CorelDRAW X8 -->
<svg xmlns="http://www.w3.org/2000/svg" xml:space="preserve" width="7.36313in" height="3.10557in" version="1.1" style="shape-rendering:geometricPrecision; text-rendering:geometricPrecision; image-rendering:optimizeQuality; fill-rule:evenodd; clip-rule:evenodd"
viewBox="0 0 7325 3090"
 xmlns:xlink="http://www.w3.org/1999/xlink">
 <defs>
  <style type="text/css">
   <![CDATA[
    .fil0 {fill:#96989A;fill-rule:nonzero}
    .fil1 {fill:url(#id0)}
    .fil2 {fill:url(#id1);fill-rule:nonzero}
   ]]>
  </style>
  <linearGradient id="id0" gradientUnits="userSpaceOnUse" x1="0.0117504" y1="1842.82" x2="3070.69" y2="2718.2">
   <stop offset="0" style="stop-opacity:1; stop-color:#18D3ED"/>
   <stop offset="0.219608" style="stop-opacity:1; stop-color:#4C5DBE"/>
   <stop offset="0.501961" style="stop-opacity:1; stop-color:#FB32A2"/>
   <stop offset="0.760784" style="stop-opacity:1; stop-color:#FB6D19"/>
   <stop offset="1" style="stop-opacity:1; stop-color:#F8AF12"/>
  </linearGradient>
  <linearGradient id="id1" gradientUnits="userSpaceOnUse" xlink:href="#id0" x1="2433.85" y1="173.819" x2="4105.57" y2="1154.63">
  </linearGradient>
 </defs>
 <g id="Layer_x0020_1">
  <metadata id="CorelCorpID_0Corel-Layer"/>
  <path class="fil0" d="M4869 2142c27,-22 57,-41 92,-56 47,-19 99,-29 157,-29 46,0 88,8 125,23 37,15 69,33 95,54l8 -54 179 0 0 703 -179 0 -9 -53c-26,20 -58,38 -95,53 -37,15 -78,22 -124,22 -58,0 -110,-9 -156,-29 -47,-20 -86,-46 -119,-80 -33,-34 -58,-73 -76,-119 -3,-7 -2,-3 -4,-11l191 -180c-2,14 -4,29 -4,45 0,29 5,56 15,80 10,24 24,45 40,62 17,17 37,30 60,40 23,9 47,13 73,13 26,0 50,-4 73,-13 23,-10 43,-23 60,-40 17,-17 30,-37 40,-62 9,-24 14,-51 14,-80 0,-29 -5,-55 -15,-79 -9,-24 -23,-44 -40,-61 -17,-17 -37,-30 -60,-40 -22,-9 -47,-14 -73,-14 -26,0 -50,5 -73,14 -34,14 -70,38 -105,67 -159,128 -289,296 -458,412 -27,19 -55,35 -83,47 -47,20 -99,30 -156,30 -23,0 -45,-2 -66,-6 -21,-4 -40,-10 -59,-17 -19,-7 -36,-16 -52,-25 -16,-10 -30,-20 -43,-30l-10 54 -178 0 0 -956 210 0 0 292c25,-18 54,-33 87,-45 34,-12 72,-18 114,-18 58,0 110,10 156,30 46,20 85,47 118,81 32,34 56,74 73,119 3,7 4,8 6,15l-191 162c2,-13 2,-17 2,-32 0,-29 -5,-55 -15,-79 -10,-24 -23,-44 -40,-61 -16,-17 -36,-30 -59,-40 -23,-9 -47,-14 -73,-14 -26,0 -51,5 -73,14 -23,10 -43,23 -60,40 -17,17 -30,37 -40,61 -10,24 -16,50 -16,79 0,29 5,56 15,80 10,25 23,45 40,62 17,17 37,30 59,40 23,9 47,13 74,13 26,0 52,0 73,-13 117,-78 225,-189 316,-267l238 -205 1 1zm812 551c0,-14 3,-29 8,-42 6,-13 13,-25 23,-35 10,-10 22,-18 37,-24 14,-5 29,-8 47,-8 17,0 33,3 47,8 14,6 26,14 36,24 11,10 19,22 24,35 5,13 8,28 8,42 0,15 -3,30 -8,43 -5,13 -13,25 -24,35 -10,10 -22,18 -36,23 -14,6 -30,9 -47,9 -18,0 -33,-3 -47,-9 -15,-6 -27,-14 -37,-23 -10,-10 -17,-22 -23,-35 -5,-13 -8,-28 -8,-43zm860 -261c0,-52 9,-101 26,-146 18,-46 43,-85 76,-119 32,-34 72,-61 118,-81 47,-19 99,-29 157,-29 24,0 47,2 69,7 22,4 42,10 60,17 19,8 37,16 52,26 16,10 31,20 44,31l13 -58 169 0 0 649c0,53 -8,102 -25,146 -17,44 -42,82 -74,114 -32,32 -72,56 -119,74 -47,18 -100,27 -160,27 -43,0 -81,-4 -115,-12 -34,-8 -64,-18 -90,-31 -26,-13 -49,-29 -68,-47 -18,-18 -34,-37 -46,-57 -13,-21 -22,-42 -29,-64 -7,-22 -11,-44 -12,-66l200 0c4,14 11,28 19,40 8,13 19,23 32,33 13,9 28,16 46,22 18,5 38,8 62,8 35,0 64,-6 87,-18 22,-12 39,-27 52,-45 13,-18 22,-37 27,-57 5,-20 7,-38 7,-54l0 -24c-27,21 -59,39 -96,53 -37,15 -79,22 -125,22 -53,0 -101,-9 -145,-27 -43,-19 -81,-44 -113,-76 -31,-33 -55,-71 -73,-115 -17,-44 -26,-92 -26,-143zm210 -1c0,29 4,56 14,80 10,24 24,44 41,62 17,17 37,30 60,39 22,10 47,14 73,14 25,0 50,-4 72,-14 23,-9 43,-22 60,-39 16,-17 30,-38 39,-62 10,-24 15,-51 15,-80 0,-29 -5,-56 -15,-79 -9,-24 -23,-44 -40,-61 -17,-17 -36,-30 -59,-40 -23,-9 -47,-14 -73,-14 -27,0 -51,5 -74,14 -23,10 -42,23 -59,40 -17,17 -30,37 -40,61 -10,23 -14,50 -14,79zm-327 352l-210 0 0 -373c0,-32 -4,-60 -11,-82 -6,-22 -16,-40 -28,-53 -12,-13 -27,-23 -44,-29 -17,-6 -35,-9 -56,-9 -26,0 -49,5 -70,15 -21,10 -38,23 -53,40 -15,17 -26,37 -33,61 -8,23 -12,49 -12,76l0 120c-12,-8 -24,-15 -37,-21 -24,-10 -49,-14 -74,-14 -25,0 -50,4 -73,14 -9,3 -18,8 -26,12l0 -460 169 0 13 53c14,-10 31,-20 48,-29 18,-10 36,-18 56,-24 19,-7 39,-13 60,-17 20,-4 42,-6 63,-6 56,0 104,8 144,24 40,16 74,39 99,69 26,30 45,67 57,110 12,43 18,92 18,146l0 377z"/>
  <path class="fil1" d="M0 1843c69,236 124,494 193,730 80,274 364,302 476,19 47,-120 94,-239 140,-358 43,-108 69,-129 123,-15 87,184 143,650 433,580 180,-44 203,-203 241,-355 33,-129 65,-258 100,-387 -64,0 -172,4 -237,4 -38,140 -58,279 -97,418 -36,133 -79,117 -127,1 -55,-134 -90,-278 -145,-411 -87,-210 -346,-226 -439,-6 -53,125 -89,259 -142,384 -67,158 -117,129 -151,-24 -45,-198 -71,-388 -116,-586 -78,5 -174,1 -252,6zm2564 940l-211 0 0 -375c0,-33 -4,-61 -11,-83 -7,-22 -17,-40 -29,-53 -13,-13 -29,-22 -47,-27 -19,-5 -39,-8 -62,-8 -23,0 -45,5 -64,13 -20,9 -36,21 -50,37 -14,15 -25,34 -32,55 -8,21 -12,45 -12,71l0 371 -209 0 0 -957 208 0 -2 298c27,-19 58,-35 92,-48 34,-13 71,-20 110,-20 56,0 104,8 145,24 40,16 73,39 98,68 26,30 45,67 57,110 13,43 19,91 19,145l0 379zm507 -130l337 -394 -319 0 0 -179 616 0 0 131 -334 392 352 0 0 180 -652 0 0 -130zm-347 -573l211 0 0 703 -211 0 0 -703zm-19 -190c0,-15 3,-29 9,-43 6,-13 15,-25 26,-35 11,-10 24,-18 39,-24 16,-6 33,-9 52,-9 19,0 36,3 51,9 16,6 29,14 40,24 11,10 20,22 26,35 6,14 9,28 9,43 0,16 -3,30 -9,43 -6,14 -15,25 -26,35 -11,10 -24,18 -40,24 -15,6 -33,9 -52,9 -18,0 -35,-3 -51,-9 -15,-6 -28,-14 -39,-24 -11,-10 -19,-22 -25,-35 -6,-14 -10,-28 -10,-43z"/>
  <path class="fil0" d="M4602 1051c0,-17 3,-34 10,-49 6,-16 15,-30 27,-41 12,-12 26,-22 43,-28 17,-7 35,-11 55,-11 21,0 40,4 56,11 17,6 31,16 43,28 12,11 21,25 27,41 7,15 10,32 10,49 0,18 -3,35 -10,51 -6,15 -15,29 -27,40 -12,12 -26,21 -43,28 -16,7 -35,10 -56,10 -20,0 -38,-3 -55,-10 -17,-7 -31,-16 -43,-28 -12,-11 -21,-25 -27,-40 -7,-16 -10,-33 -10,-51zm14 -176l-18 -875 293 0 -17 885c-15,-11 -32,-21 -49,-28 -28,-11 -58,-17 -88,-17 -29,0 -58,6 -86,17 -12,5 -24,11 -35,18z"/>
  <path class="fil2" d="M2434 109c81,280 148,587 229,867 95,326 433,359 565,23 56,-142 112,-284 167,-426 50,-127 82,-152 146,-17 103,218 169,772 514,688 214,-52 241,-240 287,-420 39,-154 77,-308 119,-460 -77,0 -205,4 -282,4 -46,166 -69,332 -115,497 -44,158 -94,138 -151,0 -66,-158 -107,-329 -172,-487 -103,-250 -411,-269 -522,-8 -63,149 -106,308 -169,456 -79,188 -138,154 -180,-28 -53,-235 -84,-461 -137,-696 -92,5 -207,2 -299,7z"/>
 </g>
</svg>
