<?xml version="1.0" encoding="UTF-8" standalone="no"?>
<!-- Creator: CorelDRAW X8 -->

<svg
   xml:space="preserve"
   width="7.3621769in"
   height="1.3182209in"
   version="1.1"
   style="clip-rule:evenodd;fill-rule:evenodd;image-rendering:optimizeQuality;shape-rendering:geometricPrecision;text-rendering:geometricPrecision"
   viewBox="0 0 7265.0594 1301.0001"
   id="svg11"
   sodipodi:docname="meet-whizbang-light.svg"
   inkscape:version="1.4.2 (ebf0e940d0, 2025-05-08)"
   xmlns:inkscape="http://www.inkscape.org/namespaces/inkscape"
   xmlns:sodipodi="http://sodipodi.sourceforge.net/DTD/sodipodi-0.dtd"
   xmlns:xlink="http://www.w3.org/1999/xlink"
   xmlns="http://www.w3.org/2000/svg"
   xmlns:svg="http://www.w3.org/2000/svg"><sodipodi:namedview
   id="namedview11"
   pagecolor="#ffffff"
   bordercolor="#000000"
   borderopacity="0.25"
   inkscape:showpageshadow="2"
   inkscape:pageopacity="0.0"
   inkscape:pagecheckerboard="0"
   inkscape:deskcolor="#d1d1d1"
   inkscape:document-units="in"
   inkscape:zoom="1.5165652"
   inkscape:cx="353.43024"
   inkscape:cy="-22.08939"
   inkscape:window-width="1536"
   inkscape:window-height="798"
   inkscape:window-x="0"
   inkscape:window-y="0"
   inkscape:window-maximized="1"
   inkscape:current-layer="_1568322293536" />
 <defs
   id="defs5">
  <style
   type="text/css"
   id="style1">
   <![CDATA[
    .fil0 {fill:#44474C;fill-rule:nonzero}
    .fil1 {fill:url(#id0)}
    .fil2 {fill:url(#id1);fill-rule:nonzero}
   ]]>
  </style>
  <linearGradient
   id="id0"
   gradientUnits="userSpaceOnUse"
   x1="0.011655"
   y1="1827.86"
   x2="3045.76"
   y2="2696.1299">
   <stop
   offset="0"
   style="stop-opacity:1; stop-color:#18D3ED"
   id="stop1" />
   <stop
   offset="0.219608"
   style="stop-opacity:1; stop-color:#4C5DBE"
   id="stop2" />
   <stop
   offset="0.501961"
   style="stop-opacity:1; stop-color:#FB32A2"
   id="stop3" />
   <stop
   offset="0.760784"
   style="stop-opacity:1; stop-color:#FB6D19"
   id="stop4" />
   <stop
   offset="1"
   style="stop-opacity:1; stop-color:#F8AF12"
   id="stop5" />
  </linearGradient>
  <linearGradient
   id="id1"
   gradientUnits="userSpaceOnUse"
   xlink:href="#id0"
   x1="2414.0901"
   y1="172.408"
   x2="4072.24"
   y2="1145.25">
  </linearGradient>
 <linearGradient
   inkscape:collect="always"
   xlink:href="#id0"
   id="linearGradient11"
   gradientUnits="userSpaceOnUse"
   x1="0.011655"
   y1="1827.86"
   x2="3045.76"
   y2="2696.1299" /></defs>
 <g
   id="Layer_x0020_1"
   inkscape:label="Layer 1"
   inkscape:groupmode="layer"
   transform="translate(-0.47020082,-1764)">
  <metadata
   id="CorelCorpID_0Corel-Layer" />
  <g
   id="_1568322293536">
   <path
   class="fil0"
   d="m 4829,2125 c 27,-22 57,-41 92,-55 46,-20 98,-30 155,-30 46,0 88,8 125,23 36,15 68,33 93,53 l 9,-53 h 177 v 697 h -177 l -9,-53 c -26,21 -58,39 -94,53 -37,15 -78,23 -124,23 -57,0 -108,-10 -155,-29 -46,-20 -85,-47 -118,-80 -32,-33 -57,-73 -75,-118 -3,-7 -1,-3 -4,-11 l 190,-178 c -3,14 -4,29 -4,44 0,29 5,56 15,80 10,23 23,44 40,61 17,17 36,30 59,39 23,10 47,14 72,14 26,0 50,-4 73,-14 22,-9 42,-22 59,-39 17,-16 30,-37 40,-61 9,-24 14,-51 14,-80 0,-28 -5,-55 -15,-78 -10,-24 -23,-44 -40,-61 -17,-17 -36,-30 -59,-39 -23,-9 -47,-14 -72,-14 -26,0 -51,5 -73,14 -34,14 -69,37 -104,66 -158,127 -287,294 -454,409 -27,19 -55,35 -83,47 -46,19 -98,29 -155,29 -23,0 -44,-2 -65,-6 -21,-4 -40,-10 -59,-17 -18,-7 -35,-15 -51,-25 -16,-9 -30,-19 -43,-29 l -9,53 h -177 v -948 h 208 v 290 c 25,-18 54,-33 87,-45 33,-12 70,-17 113,-17 57,0 109,10 154,29 46,20 85,47 117,80 32,34 56,73 73,119 2,6 3,8 5,14 l -189,161 c 2,-13 2,-17 2,-32 0,-28 -5,-55 -15,-78 -9,-24 -23,-44 -39,-61 -17,-17 -36,-30 -59,-39 -23,-9 -47,-14 -73,-14 -26,0 -50,5 -72,14 -23,9 -43,22 -60,39 -16,17 -30,37 -39,61 -10,23 -15,50 -15,78 0,29 4,56 14,80 10,24 23,45 40,61 17,17 36,30 59,39 22,10 46,14 72,14 26,0 52,0 73,-14 116,-76 223,-187 313,-264 l 236,-203 z"
   id="path5" />
   <path
   class="fil1"
   d="m 0,1828 c 68,234 123,490 192,724 79,272 361,300 471,19 47,-119 93,-237 140,-356 42,-106 68,-127 122,-14 86,182 141,645 429,575 179,-44 201,-201 239,-351 33,-128 65,-257 100,-384 -65,0 -171,3 -236,3 -38,139 -58,277 -96,415 -36,132 -78,116 -126,0 -55,-132 -89,-275 -144,-407 -86,-209 -343,-224 -435,-6 -53,124 -89,257 -141,381 -67,156 -116,128 -150,-24 -45,-196 -71,-385 -115,-581 -77,5 -173,2 -250,6 z m 2543,932 h -209 v -371 c 0,-34 -4,-62 -11,-83 -7,-22 -16,-39 -29,-52 -13,-13 -29,-22 -47,-27 -18,-5 -38,-8 -61,-8 -23,0 -44,5 -64,13 -19,9 -35,21 -49,36 -14,16 -24,34 -32,55 -8,21 -11,44 -11,70 v 368 h -208 v -949 h 206 l -1,296 c 26,-19 57,-35 91,-48 34,-13 70,-20 109,-20 55,0 103,8 143,24 40,16 73,38 98,68 26,29 45,66 57,108 12,43 18,91 18,145 z m 503,-128 334,-392 h -316 v -177 h 611 v 130 l -331,389 h 349 v 178 h -647 z m -344,-569 h 209 v 697 h -209 z m -18,-188 c 0,-15 2,-29 8,-43 6,-13 14,-25 26,-35 11,-10 24,-18 39,-24 15,-6 32,-9 51,-9 19,0 36,3 51,9 15,6 28,14 40,24 11,10 19,22 25,35 6,14 9,28 9,43 0,15 -3,29 -9,43 -6,13 -14,24 -25,34 -12,10 -25,18 -40,24 -16,6 -33,9 -52,9 -18,0 -35,-3 -50,-9 -15,-6 -28,-14 -39,-24 -11,-10 -19,-22 -26,-35 -5,-13 -8,-27 -8,-42 z"
   id="path6"
   style="fill:url(#linearGradient11)" />
   <path
   class="fil0"
   d="m 6372,2760 h -209 v -369 c 0,-32 -3,-60 -10,-81 -7,-23 -16,-40 -28,-53 -12,-14 -27,-23 -44,-29 -16,-6 -35,-9 -55,-9 -26,0 -49,5 -69,15 -21,9 -39,23 -53,39 -15,17 -26,37 -34,61 -7,23 -11,48 -11,76 v 118 c -11,-8 -24,-15 -37,-20 -23,-10 -48,-14 -73,-14 -25,0 -50,4 -73,13 -9,4 -17,8 -25,13 v -457 h 168 l 12,53 c 15,-11 31,-20 48,-29 18,-10 36,-18 55,-24 20,-7 40,-13 60,-17 20,-4 41,-6 62,-6 56,0 104,8 144,24 39,16 72,39 98,69 25,30 44,66 56,109 12,42 18,91 18,144 z"
   id="path7" />
   <path
   class="fil0"
   d="m 6488,2412 c 0,-51 9,-99 26,-144 18,-46 43,-85 75,-119 32,-33 71,-60 118,-79 46,-20 98,-30 155,-30 24,0 46,2 68,7 22,4 42,10 60,17 19,8 36,16 52,26 15,9 30,20 43,30 l 12,-57 h 169 v 644 c 0,53 -9,101 -25,145 -17,43 -42,81 -73,113 -32,31 -72,56 -118,73 -47,18 -100,27 -160,27 -42,0 -80,-4 -113,-12 -34,-8 -64,-18 -90,-31 -26,-13 -48,-28 -67,-46 -18,-18 -34,-37 -46,-57 -13,-21 -22,-42 -29,-63 -6,-22 -10,-44 -11,-65 h 198 c 4,14 10,27 19,39 8,12 18,23 31,32 13,10 28,17 46,22 18,6 38,8 62,8 35,0 63,-6 86,-18 22,-12 39,-26 52,-44 13,-18 21,-36 26,-56 5,-20 7,-39 7,-55 v -23 c -27,21 -58,38 -95,53 -37,14 -78,22 -124,22 -52,0 -100,-10 -144,-28 -43,-18 -80,-43 -112,-75 -31,-32 -55,-70 -72,-114 -17,-44 -26,-91 -26,-142 z m 208,-1 c 0,29 5,56 14,80 10,23 24,44 41,61 16,17 36,30 59,39 22,9 47,14 72,14 26,0 50,-5 72,-14 23,-9 43,-22 59,-39 17,-17 30,-37 40,-61 9,-24 14,-51 14,-80 0,-29 -5,-55 -14,-78 -10,-24 -23,-44 -40,-61 -17,-17 -37,-30 -59,-39 -23,-9 -47,-14 -72,-14 -27,0 -51,5 -73,14 -23,9 -43,22 -60,39 -16,17 -29,37 -39,61 -9,23 -14,49 -14,78 z"
   id="path8" />
   <path
   class="fil0"
   d="m 5635,2672 c 0,-15 3,-29 8,-42 5,-14 13,-25 23,-35 10,-10 22,-18 36,-24 14,-5 30,-8 47,-8 17,0 33,3 47,8 14,6 26,14 36,24 10,10 18,21 23,35 5,13 8,27 8,42 0,14 -3,28 -8,42 -5,13 -13,24 -23,34 -10,10 -22,18 -36,23 -14,6 -30,9 -47,9 -17,0 -33,-3 -47,-9 -14,-6 -26,-13 -36,-23 -10,-10 -18,-21 -23,-34 -5,-14 -8,-28 -8,-42 z"
   id="path9" />
   
  </g>
 </g>
</svg>
